<?xml version="1.0" encoding="UTF-8" standalone="no"?>
<!DOCTYPE svg PUBLIC "-//W3C//DTD SVG 1.1//EN" "http://www.w3.org/Graphics/SVG/1.1/DTD/svg11.dtd">
<svg width="100%" height="100%" viewBox="0 0 86 86" version="1.1" xmlns="http://www.w3.org/2000/svg" xmlns:xlink="http://www.w3.org/1999/xlink" xml:space="preserve" xmlns:serif="http://www.serif.com/" style="fill-rule:evenodd;clip-rule:evenodd;stroke-linejoin:round;stroke-miterlimit:2;">
    <g id="Layer_1">
        <g transform="matrix(-1,0,0,1,86,0)">
            <path d="M0.1,1.53L0.1,43C0.1,66.693 19.308,85.9 43,85.9L84.47,85.9C85.26,85.9 85.9,85.26 85.9,84.47L85.9,43C85.9,19.306 66.692,0.1 43,0.1L1.53,0.1C0.74,0.1 0.1,0.74 0.1,1.53Z" style="fill:url(#_Linear1);fill-rule:nonzero;"/>
        </g>
        <g id="Complete" transform="matrix(0.279449,0,0,0.279449,70.6609,-78.8836)">
            <g id="Brick" transform="matrix(1.00059,0,0,1,-1.37581,203.406)">
                <path id="rect3765" d="M-147.3,133.1L-42.8,133.1C-29.1,133.1 -17.9,144.3 -17.9,158L-17.9,307.5C-17.9,321.3 -29,332.4 -42.8,332.4L-147.3,332.4C-161,332.4 -172.2,321.2 -172.2,307.5L-172.2,158C-172.2,144.3 -161.1,133.1 -147.3,133.1Z" style="fill:rgb(223,223,223);fill-rule:nonzero;"/>
                <path id="rect3008" d="M-157.3,143.1L-47.8,143.1C-36.8,143.1 -27.9,152 -27.9,163L-27.9,312.5C-27.9,323.5 -36.8,332.4 -47.8,332.4L-157.3,332.4C-168.3,332.4 -177.2,323.5 -177.2,312.5L-177.2,163C-177.2,152 -168.3,143.1 -157.3,143.1Z" style="fill:white;fill-rule:nonzero;"/>
            </g>
            <g id="Green-Dragon" serif:id="Green Dragon" transform="matrix(0.904786,0,0,0.904786,-9.60802,42.2656)">
                <path d="M-33.2,438.3C-33.6,439.4 -38.6,439.3 -39.3,439.4C-43.1,440.2 -47.6,444.1 -51,442.8C-56.9,440.5 -61.1,430 -68.1,423.4C-68.8,422.8 -69.7,421.3 -70.8,421.3C-71.8,424.9 -74.4,433.2 -74.9,436.7L-74.4,437.6C-73.2,438.3 -70.4,438 -68.3,438.5C-67.4,439.5 -66.1,438.8 -65.6,440.2C-63.6,442.7 -61.8,445 -61.8,448.6C-64.1,450.5 -62.8,451.6 -66.4,451.8C-69.2,451.9 -71.7,453.4 -74.5,454.1C-76.4,455.6 -78.7,456.8 -80.4,458.5L-78.2,459C-70.7,462.5 -68.4,472.9 -74.7,479.1C-76.1,482.1 -77.1,485.2 -78.5,488.2C-68.5,499.9 -49.4,497.2 -48.8,518.3C-50.7,520.6 -49,524.5 -52.2,525.8C-59.5,521.7 -80.9,497.7 -86.5,499.5C-96.1,502.1 -96.4,511.8 -112.8,508.1C-115.4,507.6 -120.6,501.9 -119.2,498.3L-119.7,495.3C-116.5,498.5 -112.6,501.1 -107.3,499.7C-103.2,498.9 -97.4,493.6 -95.8,489.5C-99.4,486.1 -112.1,480.2 -116.4,483.9C-117.4,487.7 -119.3,491.8 -121.1,495.4C-122.2,502.3 -135.2,520.4 -142.7,516.1C-149.5,512 -151.8,492.2 -148.8,485.1C-148.5,487.3 -144.4,499.2 -142,498.9C-136.4,498.1 -129.8,484.5 -130,479C-131.9,474.9 -147.4,487.4 -151.6,484.8C-153.9,480.7 -150.6,478.2 -152.2,474.1C-150.3,472.2 -148.7,469 -145.7,469.1C-142.7,467 -138.2,461.9 -135.9,458.6C-139.7,459.7 -143.4,460.7 -147.3,461C-149.4,457.5 -147.2,452.3 -145.4,449.2C-141.8,446.1 -138.4,446.9 -135,442.6C-132.7,439.7 -129.3,437.6 -127.7,434C-129.7,431.9 -133.1,433.6 -135,430.9C-143.3,439.2 -149.7,448.5 -160.9,452.2C-167,454.2 -174.6,455.8 -166.5,448.5L-159.4,441.8C-152.9,435.2 -144.9,429.2 -140.9,418.2C-147.9,417.3 -143.1,417.9 -148.8,416.3C-153.5,413.1 -157.2,404.1 -153.8,398.2C-147.7,398 -149.1,397 -142.7,399.4C-141.4,399.9 -139.6,400.7 -138.4,399.6C-133.2,399.6 -130.6,394.7 -130.1,389.7C-132.7,388.8 -144.9,381.7 -143.7,378.1C-142.7,377.1 -141.6,377.4 -140.5,377.6L-139.2,377C-130.5,379.1 -122.3,361.3 -113.3,375L-112.4,377L-110.9,382.3C-108.3,381.8 -105.3,382.1 -103.1,381C-100.3,379.7 -87,371 -87.8,367.5C-89.8,366.6 -91.8,364.3 -90.2,362C-87.6,362.1 -80.9,362.8 -79.1,365C-75.6,365.9 -75.6,370.8 -73,372.9C-73.4,375.3 -71.9,380.8 -75.1,381.3C-78.1,383.4 -87.5,384.8 -91.4,386.1C-88.1,388.2 -85.4,391 -82.5,393.5C-79.2,396.2 -69.8,385.9 -68.2,383.2C-66.8,380.6 -67.5,379.8 -67.6,377.2C-67.3,374.8 -64.2,375.9 -62.7,376C-58.9,379.2 -50.2,384.9 -53.3,391.7C-55.7,392.4 -74,399 -74.6,399.9C-59.9,418.4 -40.5,424.3 -31.8,437.7L-33.2,438.3ZM-79.5,411.7C-81.3,409.8 -83.6,407.3 -84.7,406.1C-86.2,404.9 -86.5,404 -89.7,404.7C-92.5,405.2 -100.6,408.3 -103,408C-105,407.9 -103.3,406.4 -102,406.6C-98.6,403.7 -93.5,403.5 -90.4,399.8C-94.2,396 -108,383.3 -112.8,388.2C-118.8,394.3 -125.6,413.6 -131.6,423.4C-128.6,422.5 -118.7,416.2 -116,418.2C-114.1,418.5 -111.6,420.4 -110.5,420.2C-108.9,424.1 -104.9,425 -106.5,430C-109.6,433.1 -117.6,440 -119,444C-117.7,444.7 -116.4,445.5 -115.5,446.5C-113.5,447.2 -113.8,450.6 -114,452.4C-119,458 -126,461.2 -130.6,467.3C-128.4,467 -126.3,467.3 -124.5,467.7C-122.8,467.6 -120,468.8 -119.1,470.7C-116.4,472.4 -115.9,478 -116,481.2C-114.1,477.3 -112.1,476.1 -108.9,475.4C-110.3,473.9 -110.6,471.5 -112.1,470C-112.2,468.4 -111.8,467.2 -110.3,466.6C-100.3,463.2 -91.3,458.3 -84.3,449.7C-82.9,448.1 -83.9,447.3 -85.1,446C-87.6,443.3 -86.9,432.6 -85.7,429.1C-86.6,428.9 -95.3,427.3 -92.4,430.4C-94.1,437.8 -98.8,456.5 -103.2,461.8C-106.9,465.9 -110,458.5 -109.9,455.1C-112.1,454 -110.7,450.4 -111.2,448.4C-106.6,445 -107,438.5 -104.8,433.5C-102,427.6 -106,424 -104.1,418.2C-103,418 -101.5,418.3 -101,419.5C-99,419.8 -98.1,422.4 -96.2,421.7C-92.4,418 -83.8,411.1 -78.5,413.3C-77.3,414.4 -78.8,412.3 -79.5,411.7ZM-102.3,476.3C-99.3,477 -92.8,480.1 -91,482.6C-88.5,479.9 -86.7,471.5 -86.4,467.7C-89.5,464.5 -100,473.5 -102.3,476.3Z" style="fill:rgb(26,127,82);fill-rule:nonzero;"/>
            </g>
        </g>
    </g>
    <defs>
        <linearGradient id="_Linear1" x1="0" y1="0" x2="1" y2="0" gradientUnits="userSpaceOnUse" gradientTransform="matrix(-84.9623,-84.9623,84.9623,-84.9623,85.4811,85.4812)"><stop offset="0" style="stop-color:rgb(0,91,5);stop-opacity:1"/><stop offset="1" style="stop-color:rgb(255,195,28);stop-opacity:1"/></linearGradient>
    </defs>
</svg>
